<svg width="180" height="180" viewBox="0 0 180 180" fill="none" xmlns="http://www.w3.org/2000/svg">
<rect width="180" height="180" rx="20" fill="#E64C51"/>
<path d="M80.5551 100.702V120.405C80.5551 120.405 80.5551 121.561 82.2551 121.561H89.1913C89.3437 121.564 89.4951 121.535 89.6364 121.478C89.7777 121.421 89.906 121.336 90.0138 121.228C90.1216 121.12 90.2067 120.992 90.264 120.85C90.3213 120.709 90.3496 120.558 90.3473 120.405V68.8601H105.988V120.405C105.988 120.405 105.988 121.561 107.688 121.561H114.641C114.793 121.564 114.945 121.535 115.086 121.478C115.227 121.421 115.356 121.336 115.463 121.228C115.571 121.12 115.656 120.992 115.714 120.85C115.771 120.709 115.799 120.558 115.797 120.405V68.8601H131.488C131.488 68.8601 132.712 68.8601 132.712 67.024V59.6629C132.715 59.5015 132.684 59.3413 132.624 59.1918C132.563 59.0422 132.473 58.9064 132.359 58.7922C132.245 58.6781 132.109 58.5881 131.959 58.5274C131.81 58.4666 131.65 58.4366 131.488 58.4388H63.1807C63.1807 58.4388 52.1815 59.0169 48.7134 66.548C47.4079 69.2962 46.9849 72.381 47.5023 75.3791C48.0198 78.3773 49.4523 81.1418 51.6034 83.2934C54.4255 86.2345 80.5551 100.702 80.5551 100.702ZM60.8687 70.0161C62.0247 68.8601 67.2438 68.8601 67.2438 68.8601H80.5551V89.3455C77.444 87.3735 63.5547 78.4823 61.4807 76.4252C60.5658 75.6459 59.9903 74.541 59.876 73.3447C59.7618 72.1483 60.1178 70.9545 60.8687 70.0161Z" fill="white"/>
</svg>
